# Blender v2.82 (sub 7) OBJ File: ''
# www.blender.org
mtllib Soil.mtl
o Plane
v -1.000000 0.000000 1.000000
v 1.000000 0.000000 1.000000
v -1.000000 0.000000 -1.000000
v 1.000000 0.000000 -1.000000
v -0.500000 0.000000 1.000000
v 0.000000 0.000000 1.000000
v 0.500000 0.000000 1.000000
v 0.500000 0.000000 -1.000000
v 0.000000 0.000000 -1.000000
v -0.500000 0.000000 -1.000000
v -1.000000 0.000000 -0.500000
v -1.000000 0.000000 0.000000
v -1.000000 0.000000 0.500000
v 1.000000 0.000000 0.500000
v 1.000000 0.000000 0.000000
v 1.000000 0.000000 -0.500000
v -0.500000 0.293354 0.500000
v -0.500000 0.000000 0.000000
v -0.500000 0.265991 -0.500000
v 0.000000 0.144644 0.500000
v 0.000000 -0.119380 0.000000
v 0.000000 0.000000 -0.500000
v 0.500000 0.000000 0.500000
v 0.500000 0.000000 0.000000
v 0.500000 0.058826 -0.500000
v -1.241476 -0.134158 1.418394
v 1.392499 -0.134158 1.418394
v -1.241476 -0.134158 -1.215580
v 1.392499 -0.134158 -1.215580
v -0.582982 -0.134158 1.418394
v 0.075512 -0.134158 1.418394
v 0.734005 -0.134158 1.418394
v 0.734005 -0.134158 -1.215580
v 0.075512 -0.134158 -1.215580
v -0.582982 -0.134158 -1.215580
v -1.241476 -0.134158 -0.557087
v -1.241476 -0.134158 0.101407
v -1.241476 -0.134158 0.759900
v 1.392499 -0.134158 0.759900
v 1.392499 -0.134158 0.101407
v 1.392499 -0.134158 -0.557087
vt 0.750000 0.750000
vt 1.000000 0.750000
vt 1.000000 1.000000
vt 0.750000 1.000000
vt 0.000000 0.750000
vt 0.250000 0.750000
vt 0.250000 1.000000
vt 0.000000 1.000000
vt 0.500000 0.750000
vt 0.500000 1.000000
vt 0.500000 0.000000
vt 0.750000 0.000000
vt 0.750000 0.250000
vt 0.500000 0.250000
vt 0.750000 0.500000
vt 0.500000 0.500000
vt 0.250000 0.000000
vt 0.250000 0.250000
vt 0.250000 0.500000
vt 0.000000 0.000000
vt 0.000000 0.250000
vt 0.000000 0.500000
vt 1.000000 0.000000
vt 1.000000 0.250000
vt 1.000000 0.500000
vt 0.500000 1.000000
vt 0.250000 1.000000
vt 1.000000 0.750000
vt 1.000000 1.000000
vt 1.000000 0.250000
vt 1.000000 0.500000
vt 0.000000 1.000000
vt 0.000000 0.000000
vt 0.250000 0.000000
vt 0.500000 0.000000
vt 0.000000 0.750000
vt 0.750000 0.000000
vt 0.000000 0.500000
vt 0.750000 1.000000
vt 0.000000 0.250000
vt 1.000000 0.000000
vn 0.0586 0.9966 -0.0586
vn -0.2490 0.9360 -0.2490
vn 0.2490 0.9360 -0.2490
vn -0.0586 0.9966 -0.0586
vn 0.1417 0.9797 0.1417
vn 0.0244 0.9666 -0.2552
vn -0.1728 0.9697 0.1728
vn 0.1350 0.9076 0.3975
vn 0.2280 0.8505 -0.4740
vn 0.3384 0.8781 0.3384
vn -0.2710 0.9237 0.2710
vn -0.2710 0.9237 -0.2710
vn -0.2490 0.9360 0.2490
vn 0.0000 1.0000 0.0000
vn 0.0586 0.9966 0.0586
vn 0.0000 0.8490 -0.5284
vn 0.3234 0.9463 0.0000
vn 0.0000 0.9522 0.3053
vn -0.4857 0.8741 0.0000
usemtl None
s off
f 25/1/1 16/2/1 4/3/1 8/4/1
f 11/5/2 19/6/2 10/7/2 3/8/2
f 19/6/3 22/9/3 9/10/3 10/7/3
f 22/9/4 25/1/4 8/4/4 9/10/4
f 6/11/5 7/12/5 23/13/5 20/14/5
f 20/14/6 23/13/6 24/15/6 21/16/6
f 21/16/7 24/15/7 25/1/7 22/9/7
f 5/17/8 6/11/8 20/14/8 17/18/8
f 17/18/9 20/14/9 21/16/9 18/19/9
f 18/19/10 21/16/10 22/9/10 19/6/10
f 1/20/11 5/17/11 17/18/11 13/21/11
f 13/21/12 17/18/12 18/19/12 12/22/12
f 12/22/13 18/19/13 19/6/13 11/5/13
f 7/12/14 2/23/14 14/24/14 23/13/14
f 23/13/14 14/24/14 15/25/14 24/15/14
f 24/15/15 15/25/15 16/2/15 25/1/15
f 10/7/16 9/10/16 34/26/16 35/27/16
f 4/3/17 16/2/17 41/28/17 29/29/17
f 15/25/17 14/24/17 39/30/17 40/31/17
f 3/8/16 10/7/16 35/27/16 28/32/16
f 16/2/17 15/25/17 40/31/17 41/28/17
f 5/17/18 1/20/18 26/33/18 30/34/18
f 6/11/18 5/17/18 30/34/18 31/35/18
f 11/5/19 3/8/19 28/32/19 36/36/19
f 7/12/18 6/11/18 31/35/18 32/37/18
f 12/22/19 11/5/19 36/36/19 37/38/19
f 8/4/16 4/3/16 29/29/16 33/39/16
f 1/20/19 13/21/19 38/40/19 26/33/19
f 13/21/19 12/22/19 37/38/19 38/40/19
f 9/10/16 8/4/16 33/39/16 34/26/16
f 2/23/18 7/12/18 32/37/18 27/41/18
f 14/24/17 2/23/17 27/41/17 39/30/17
